<mxfile host="app.diagrams.net" modified="2024-07-02T06:42:56.631Z" agent="Mozilla/5.0 (Macintosh; Intel Mac OS X 10_15_7) AppleWebKit/537.36 (KHTML, like Gecko) Chrome/125.0.0.0 Safari/537.36" version="24.6.4" etag="zz40oeT-A8-7lWZ54-QB" type="github">
  <diagram name="Page-1" id="Xg-aX_g6udk7hxbvJ13d">
    <mxGraphModel>
      <root>
        <mxCell id="0" />
        <mxCell id="1" parent="0" />
      </root>
    </mxGraphModel>
  </diagram>
</mxfile>
